<svg width="230" height="40" viewBox="0 0 230 40" fill="none" xmlns="http://www.w3.org/2000/svg">
<g id="Capa_1" clip-path="url(#clip0_1_2027)">
<g id="Group">
<path id="Vector" d="M61.3936 29.0494C61.2319 28.9113 61.1091 28.7129 61.0233 28.4561L56.3886 13.5862L56.3243 13.2964C56.3243 13.0824 56.3983 12.9054 56.5503 12.7673C56.7004 12.6292 56.8719 12.5592 57.0649 12.5592H60.5731C60.8304 12.5592 61.0448 12.6292 61.2163 12.7673C61.3878 12.9074 61.495 13.061 61.5378 13.2322L64.1768 22.1289L66.9756 13.2964C67.0185 13.1038 67.1256 12.9326 67.2972 12.7829C67.4687 12.6331 67.6948 12.5573 67.9735 12.5573H70.1934C70.4721 12.5573 70.6962 12.6331 70.8697 12.7829C71.0412 12.9326 71.1601 13.1038 71.2244 13.2964L74.0232 22.1289L76.629 13.2322C76.6933 13.061 76.8063 12.9054 76.9662 12.7673C77.1279 12.6292 77.3365 12.5592 77.5937 12.5592H81.1019C81.3163 12.5592 81.4937 12.6292 81.6321 12.7673C81.7705 12.9074 81.8406 13.0844 81.8406 13.2964C81.8406 13.4033 81.8289 13.5006 81.8075 13.5862L77.1416 28.4561C76.9915 28.991 76.6485 29.2594 76.1125 29.2594H73.0545C72.5185 29.2594 72.1541 28.991 71.9611 28.4561L69.098 19.9134L66.2018 28.4561C66.0517 28.991 65.697 29.2594 65.1396 29.2594H62.0816C61.7815 29.2594 61.5515 29.1894 61.3897 29.0513L61.3936 29.0494Z" fill="black"/>
<path id="Vector_2" d="M85.7542 27.7014C84.3061 26.4488 83.5168 24.6672 83.3881 22.3545C83.3667 22.0764 83.355 21.594 83.355 20.9093C83.355 20.2247 83.3647 19.7423 83.3881 19.4642C83.5168 17.1943 84.3256 15.4223 85.8185 14.1483C87.3095 12.8743 89.3638 12.2383 91.9813 12.2383C94.5988 12.2383 96.6531 12.8763 98.144 14.1483C99.635 15.4223 100.446 17.1943 100.574 19.4642C100.617 20.0204 100.639 20.5028 100.639 20.9093C100.639 21.3158 100.617 21.7982 100.574 22.3545C100.446 24.6672 99.6565 26.4488 98.2084 27.7014C96.7603 28.9541 94.6846 29.5804 91.9813 29.5804C89.278 29.5804 87.2023 28.9541 85.7542 27.7014ZM93.9439 24.7138C94.3727 24.1673 94.6202 23.327 94.6846 22.1931C94.706 21.9791 94.7177 21.5512 94.7177 20.9093C94.7177 20.2675 94.706 19.8395 94.6846 19.6256C94.6202 18.513 94.3727 17.6766 93.9439 17.1204C93.5152 16.5641 92.8603 16.2859 91.9813 16.2859C91.1023 16.2859 90.4474 16.5641 90.0186 17.1204C89.5899 17.6766 89.3423 18.513 89.278 19.6256L89.2449 20.9093L89.278 22.1931C89.3423 23.329 89.5879 24.1673 90.0186 24.7138C90.4474 25.2604 91.1023 25.5327 91.9813 25.5327C92.8603 25.5327 93.5152 25.2604 93.9439 24.7138Z" fill="black"/>
<path id="Vector_3" d="M103.936 29.0182C103.775 28.8568 103.695 28.6701 103.695 28.4561V13.3936C103.695 13.1583 103.769 12.9599 103.921 12.8004C104.071 12.639 104.264 12.5592 104.5 12.5592H108.425C108.661 12.5592 108.86 12.639 109.019 12.8004C109.179 12.9618 109.261 13.1583 109.261 13.3936V14.6132C109.861 13.9499 110.565 13.4403 111.368 13.0883C112.173 12.7343 113.068 12.5592 114.056 12.5592H115.504C115.74 12.5592 115.933 12.6351 116.083 12.7848C116.233 12.9346 116.309 13.1272 116.309 13.3625V16.8636C116.309 17.0776 116.233 17.2643 116.083 17.4257C115.933 17.5872 115.74 17.6669 115.504 17.6669H112.253C111.395 17.6669 110.735 17.9023 110.275 18.373C109.813 18.8437 109.583 19.5089 109.583 20.3647V28.4581C109.583 28.6934 109.503 28.886 109.341 29.0357C109.179 29.1855 108.982 29.2614 108.747 29.2614H104.5C104.285 29.2614 104.098 29.1816 103.936 29.0202V29.0182Z" fill="black"/>
<path id="Vector_4" d="M118.77 29.0338C118.609 28.884 118.529 28.6915 118.529 28.4561V7.26089C118.529 7.02554 118.609 6.83298 118.77 6.68321C118.932 6.53344 119.129 6.45758 119.365 6.45758H123.29C123.526 6.45758 123.719 6.53344 123.869 6.68321C124.019 6.83298 124.095 7.02554 124.095 7.26089V17.9879L128.375 13.1058C128.418 13.063 128.498 12.9891 128.617 12.8801C128.734 12.7732 128.858 12.6934 128.987 12.639C129.116 12.5864 129.277 12.5592 129.47 12.5592H134.008C134.201 12.5592 134.366 12.6292 134.507 12.7673C134.645 12.9074 134.715 13.0844 134.715 13.2964C134.715 13.4889 134.639 13.6601 134.489 13.8099L128.825 20.0399L135.294 28.036C135.444 28.2286 135.52 28.39 135.52 28.5184C135.52 28.7323 135.45 28.9093 135.312 29.0474C135.171 29.1875 134.994 29.2555 134.781 29.2555H130.115C129.837 29.2555 129.628 29.2127 129.488 29.1272C129.348 29.0416 129.182 28.9015 128.989 28.709L124.097 22.6715V28.4522C124.097 28.6662 124.021 28.8529 123.871 29.0144C123.721 29.1758 123.528 29.2555 123.292 29.2555H119.367C119.131 29.2555 118.932 29.1816 118.772 29.0299L118.77 29.0338Z" fill="black"/>
<path id="Vector_5" d="M139.8 28.8413C138.619 28.3492 137.746 27.7598 137.177 27.0751C136.608 26.3905 136.323 25.77 136.323 25.2118C136.323 24.9978 136.403 24.8208 136.565 24.6827C136.727 24.5446 136.902 24.4746 137.095 24.4746H140.989C141.118 24.4746 141.225 24.5174 141.311 24.603C141.675 24.8383 141.88 24.9784 141.923 25.0212C142.33 25.3207 142.71 25.5502 143.065 25.7117C143.419 25.8731 143.842 25.9529 144.335 25.9529C144.914 25.9529 145.392 25.84 145.768 25.6164C146.142 25.3907 146.331 25.0756 146.331 24.6691C146.331 24.3268 146.23 24.0486 146.025 23.8347C145.821 23.6207 145.435 23.4126 144.868 23.2084C144.298 23.0061 143.435 22.796 142.277 22.5821C138.566 21.8332 136.711 20.1196 136.711 17.4432C136.711 16.566 136.995 15.7258 137.565 14.9225C138.134 14.1192 138.97 13.4715 140.075 12.9794C141.18 12.4873 142.505 12.2402 144.049 12.2402C145.593 12.2402 146.972 12.4814 148.12 12.9618C149.268 13.4442 150.142 14.0219 150.744 14.6968C151.344 15.3718 151.644 15.9864 151.644 16.5427C151.644 16.7353 151.574 16.9064 151.436 17.0562C151.295 17.206 151.13 17.2818 150.937 17.2818H147.397C147.204 17.2818 147.054 17.239 146.947 17.1534C146.69 17.0251 146.433 16.8636 146.175 16.6711C145.789 16.4143 145.452 16.2159 145.162 16.0778C144.871 15.9397 144.501 15.8697 144.051 15.8697C143.515 15.8697 143.096 15.9884 142.796 16.2237C142.496 16.4591 142.345 16.7586 142.345 17.1223C142.345 17.4432 142.437 17.7058 142.618 17.9101C142.8 18.1143 143.176 18.3107 143.745 18.5033C144.314 18.6959 145.177 18.9001 146.335 19.114C148.438 19.4778 149.966 20.1255 150.921 21.0572C151.876 21.9888 152.354 23.0761 152.354 24.3171C152.354 25.9237 151.64 27.2016 150.214 28.1547C148.787 29.1077 146.787 29.5843 144.213 29.5843C142.453 29.5843 140.983 29.3372 139.804 28.8451L139.8 28.8413Z" fill="black"/>
<path id="Vector_6" d="M155.359 35.1354C155.199 34.9857 155.117 34.7931 155.117 34.5578V13.3625C155.117 13.1272 155.197 12.9346 155.359 12.7848C155.521 12.6351 155.718 12.5592 155.953 12.5592H159.783C160.019 12.5592 160.212 12.6351 160.362 12.7848C160.512 12.9346 160.588 13.1272 160.588 13.3625V14.5179C161.746 12.9988 163.408 12.2383 165.576 12.2383C167.743 12.2383 169.292 12.886 170.483 14.1814C171.674 15.4768 172.311 17.3246 172.397 19.7209C172.419 19.999 172.428 20.3958 172.428 20.9093C172.428 21.4228 172.417 21.8293 172.397 22.1289C172.311 24.4415 171.668 26.2621 170.466 27.5886C169.263 28.9171 167.634 29.5804 165.574 29.5804C163.514 29.5804 161.937 28.8743 160.908 27.4603V34.5578C160.908 34.7931 160.832 34.9857 160.682 35.1354C160.532 35.2852 160.339 35.3611 160.103 35.3611H155.951C155.716 35.3611 155.517 35.2852 155.357 35.1354H155.359ZM165.786 24.2645C166.205 23.6966 166.445 22.9108 166.509 21.9032C166.531 21.6893 166.54 21.3567 166.54 20.9074C166.54 20.4581 166.529 20.1255 166.509 19.9115C166.445 18.9059 166.203 18.1182 165.786 17.5502C165.367 16.9823 164.675 16.6983 163.71 16.6983C162.746 16.6983 162.101 16.992 161.65 17.5813C161.2 18.1707 160.953 18.9137 160.91 19.8143C160.888 20.0924 160.879 20.4989 160.879 21.0338C160.879 21.5687 160.888 21.9441 160.91 22.2222C160.953 23.0567 161.204 23.7472 161.666 24.2937C162.128 24.8403 162.808 25.1126 163.709 25.1126C164.673 25.1126 165.365 24.8286 165.784 24.2607L165.786 24.2645Z" fill="black"/>
<path id="Vector_7" d="M177.467 28.921C176.533 28.4834 175.804 27.8765 175.278 27.1063C174.752 26.336 174.49 25.4899 174.49 24.5699C174.49 23.115 175.097 21.9324 176.309 21.0221C177.521 20.1119 179.189 19.4856 181.312 19.1432L185.302 18.5325V18.1474C185.302 17.3557 185.14 16.778 184.818 16.4124C184.497 16.0486 183.949 15.8658 183.177 15.8658C182.748 15.8658 182.39 15.9417 182.099 16.0914C181.809 16.2412 181.482 16.4668 181.117 16.7664C180.838 17.0017 180.591 17.1729 180.376 17.2799C180.291 17.4296 180.183 17.5055 180.055 17.5055H176.322C176.108 17.5055 175.931 17.4355 175.792 17.2974C175.652 17.1593 175.594 16.992 175.615 16.7994C175.636 16.2218 175.925 15.5741 176.484 14.8563C177.042 14.1386 177.889 13.524 179.026 13.0105C180.162 12.497 181.567 12.2402 183.241 12.2402C185.902 12.2402 187.876 12.8238 189.163 13.9908C190.449 15.1578 191.094 16.7372 191.094 18.727V28.4581C191.094 28.672 191.018 28.8588 190.868 29.0202C190.718 29.1816 190.525 29.2614 190.289 29.2614H186.331C186.116 29.2614 185.929 29.1816 185.767 29.0202C185.606 28.8588 185.526 28.672 185.526 28.4581V27.3338C185.054 27.9971 184.399 28.5378 183.563 28.956C182.727 29.3742 181.729 29.5823 180.569 29.5823C179.41 29.5823 178.396 29.3625 177.465 28.9249L177.467 28.921ZM184.483 24.8578C185.074 24.2373 185.368 23.3387 185.368 22.16V21.7749L182.698 22.2242C180.895 22.5665 179.994 23.2084 179.994 24.1517C179.994 24.6438 180.203 25.0406 180.622 25.3402C181.041 25.6397 181.559 25.7895 182.183 25.7895C183.126 25.7895 183.894 25.4802 184.485 24.8578H184.483Z" fill="black"/>
<path id="Vector_8" d="M196.454 27.6373C194.941 26.3419 194.131 24.5388 194.023 22.2261L193.99 20.9424L194.023 19.6256C194.109 17.3129 194.914 15.504 196.436 14.1989C197.958 12.8938 199.944 12.2402 202.388 12.2402C204.256 12.2402 205.821 12.5728 207.088 13.2361C208.352 13.8994 209.298 14.6871 209.919 15.5974C210.541 16.5077 210.874 17.3363 210.917 18.0871C210.939 18.3224 210.863 18.5208 210.691 18.6803C210.52 18.8417 210.315 18.9215 210.079 18.9215H205.768C205.532 18.9215 205.349 18.869 205.22 18.76C205.092 18.6531 204.973 18.4819 204.866 18.2466C204.63 17.6475 204.324 17.2079 203.948 16.9298C203.572 16.6516 203.094 16.5116 202.515 16.5116C200.862 16.5116 200.005 17.6027 199.941 19.787L199.907 21.0066L199.941 22.0666C199.962 23.1812 200.186 24 200.617 24.5232C201.046 25.0484 201.679 25.311 202.515 25.311C203.137 25.311 203.626 25.1768 203.979 24.9103C204.334 24.6419 204.628 24.1984 204.864 23.5779C204.971 23.3426 205.09 23.1714 205.218 23.0645C205.347 22.9575 205.528 22.903 205.766 22.903H210.077C210.292 22.903 210.485 22.9789 210.656 23.1286C210.828 23.2784 210.913 23.4612 210.913 23.6752C210.913 24.3385 210.619 25.1359 210.029 26.0676C209.438 26.9993 208.501 27.8182 207.212 28.5242C205.926 29.2303 204.316 29.5843 202.385 29.5843C199.939 29.5843 197.96 28.9366 196.448 27.6412L196.454 27.6373Z" fill="black"/>
<path id="Vector_9" d="M215.359 27.4758C213.856 26.0734 213.085 24.035 213.042 21.3586V20.3628C213.127 17.8147 213.921 15.825 215.423 14.3895C216.924 12.956 218.953 12.2383 221.506 12.2383C223.352 12.2383 224.911 12.6078 226.188 13.347C227.464 14.0861 228.419 15.1033 229.051 16.3987C229.684 17.6942 230 19.1666 230 20.814V21.6173C230 21.8527 229.92 22.0511 229.758 22.2106C229.597 22.3701 229.4 22.4518 229.164 22.4518H218.963V22.6443C218.984 23.6071 219.208 24.3832 219.639 24.9725C220.068 25.5619 220.68 25.8556 221.473 25.8556C221.988 25.8556 222.401 25.7544 222.713 25.5502C223.023 25.3479 223.319 25.0854 223.598 24.7625C223.79 24.5485 223.946 24.4143 224.063 24.3618C224.18 24.3093 224.369 24.282 224.627 24.282H228.842C229.035 24.282 229.201 24.3404 229.341 24.459C229.48 24.5777 229.55 24.7216 229.55 24.8928C229.55 25.4491 229.234 26.1026 228.601 26.8515C227.967 27.6003 227.045 28.2441 225.833 28.779C224.621 29.3139 223.188 29.5823 221.537 29.5823C218.92 29.5823 216.86 28.8821 215.359 27.4797V27.4758ZM224.081 19.1743V19.1102C224.081 18.0832 223.855 17.2857 223.405 16.7177C222.954 16.1498 222.321 15.8658 221.506 15.8658C220.692 15.8658 220.064 16.1498 219.624 16.7177C219.183 17.2857 218.965 18.0832 218.965 19.1102V19.1743H224.081Z" fill="black"/>
</g>
<path id="Vector_10" d="M35.5519 20.5981L36.5225 17.1573C36.8675 15.9358 37.9842 15.0917 39.2569 15.0917H42.196C44.1099 15.0917 45.4762 16.9433 44.9071 18.7678L38.9042 38.0102C38.5338 39.1947 37.4366 40.0019 36.1931 40.0019H31.6617C30.4182 40.0019 29.319 39.1947 28.9506 38.0102L24.9084 25.0367C24.082 22.3817 20.3165 22.3798 19.4862 25.0328L18.1161 29.4092C17.7458 30.5918 16.6485 31.397 15.405 31.397H10.8697C9.62622 31.397 8.52893 30.5898 8.15862 29.4053L0.130673 3.67615C-0.438436 1.85169 0.927816 0 2.84174 0H5.97574C7.24844 0 8.36521 0.844153 8.71019 2.06565L11.4602 11.824C12.2359 14.5801 16.1515 14.5801 16.9272 11.824L17.8491 8.55045C18.194 7.32896 19.3108 6.4848 20.5835 6.4848H23.8364C25.0994 6.4848 26.2103 7.31729 26.5631 8.52711L30.0927 20.6234C30.8899 23.3581 34.7801 23.3406 35.5519 20.5981Z" fill="#5230FF"/>
</g>
<defs>
<clipPath id="clip0_1_2027">
<rect width="230" height="40" fill="white"/>
</clipPath>
</defs>
</svg>
