<svg width="14" height="11" viewBox="0 0 14 11" fill="none" xmlns="http://www.w3.org/2000/svg">
<path id="checklist_rtl" d="M9.9 8.78311L12.2667 6.41645C12.4 6.28311 12.5556 6.21922 12.7333 6.22478C12.9111 6.23034 13.0667 6.29978 13.2 6.43311C13.3222 6.56645 13.3833 6.722 13.3833 6.89978C13.3833 7.07756 13.3222 7.23311 13.2 7.36645L10.3833 10.1998C10.25 10.3331 10.0944 10.3998 9.91667 10.3998C9.73889 10.3998 9.58333 10.3331 9.45 10.1998L8.01667 8.76645C7.89444 8.64422 7.83333 8.48867 7.83333 8.29978C7.83333 8.11089 7.89444 7.95534 8.01667 7.83311C8.13889 7.71089 8.29444 7.64978 8.48333 7.64978C8.67222 7.64978 8.82778 7.71089 8.95 7.83311L9.9 8.78311ZM9.9 3.44978L12.2667 1.08311C12.4 0.94978 12.5556 0.885891 12.7333 0.891447C12.9111 0.897002 13.0667 0.966447 13.2 1.09978C13.3222 1.23311 13.3833 1.38867 13.3833 1.56645C13.3833 1.74422 13.3222 1.89978 13.2 2.03311L10.3833 4.86645C10.25 4.99978 10.0944 5.06645 9.91667 5.06645C9.73889 5.06645 9.58333 4.99978 9.45 4.86645L8.01667 3.43311C7.89444 3.31089 7.83333 3.15534 7.83333 2.96645C7.83333 2.77756 7.89444 2.622 8.01667 2.49978C8.13889 2.37756 8.29444 2.31645 8.48333 2.31645C8.67222 2.31645 8.82778 2.37756 8.95 2.49978L9.9 3.44978ZM0.999999 9.33311C0.81111 9.33311 0.652776 9.26922 0.524999 9.14145C0.397221 9.01367 0.333332 8.85534 0.333332 8.66645C0.333332 8.47756 0.397221 8.31922 0.524999 8.19145C0.652776 8.06367 0.81111 7.99978 0.999999 7.99978H5.66667C5.85555 7.99978 6.01389 8.06367 6.14167 8.19145C6.26944 8.31922 6.33333 8.47756 6.33333 8.66645C6.33333 8.85534 6.26944 9.01367 6.14167 9.14145C6.01389 9.26922 5.85555 9.33311 5.66667 9.33311H0.999999ZM0.999999 3.99978C0.81111 3.99978 0.652776 3.93589 0.524999 3.80811C0.397221 3.68034 0.333332 3.522 0.333332 3.33311C0.333332 3.14422 0.397221 2.98589 0.524999 2.85811C0.652776 2.73034 0.81111 2.66645 0.999999 2.66645H5.66667C5.85555 2.66645 6.01389 2.73034 6.14167 2.85811C6.26944 2.98589 6.33333 3.14422 6.33333 3.33311C6.33333 3.522 6.26944 3.68034 6.14167 3.80811C6.01389 3.93589 5.85555 3.99978 5.66667 3.99978H0.999999Z" fill="black"/>
</svg>
