<svg width="14" height="14" viewBox="0 0 14 14" fill="none" xmlns="http://www.w3.org/2000/svg">
<path id="edit_calendar" d="M1.33333 13.6668C0.966667 13.6668 0.652778 13.5363 0.391667 13.2752C0.130556 13.0141 0 12.7002 0 12.3335V3.00016C0 2.6335 0.130556 2.31961 0.391667 2.0585C0.652778 1.79738 0.966667 1.66683 1.33333 1.66683H2V1.00016C2 0.811274 2.06389 0.652941 2.19167 0.525163C2.31944 0.397385 2.47778 0.333496 2.66667 0.333496C2.85556 0.333496 3.01389 0.397385 3.14167 0.525163C3.26944 0.652941 3.33333 0.811274 3.33333 1.00016V1.66683H8.66667V1.00016C8.66667 0.811274 8.73056 0.652941 8.85833 0.525163C8.98611 0.397385 9.14444 0.333496 9.33333 0.333496C9.52222 0.333496 9.68056 0.397385 9.80833 0.525163C9.93611 0.652941 10 0.811274 10 1.00016V1.66683H10.6667C11.0333 1.66683 11.3472 1.79738 11.6083 2.0585C11.8694 2.31961 12 2.6335 12 3.00016V5.6835C12 5.87239 11.9361 6.03072 11.8083 6.1585C11.6806 6.28627 11.5222 6.35016 11.3333 6.35016C11.1444 6.35016 10.9861 6.28627 10.8583 6.1585C10.7306 6.03072 10.6667 5.87239 10.6667 5.6835V5.66683H1.33333V12.3335H5.33333C5.52222 12.3335 5.68056 12.3974 5.80833 12.5252C5.93611 12.6529 6 12.8113 6 13.0002C6 13.1891 5.93611 13.3474 5.80833 13.4752C5.68056 13.6029 5.52222 13.6668 5.33333 13.6668H1.33333ZM1.33333 4.3335H10.6667V3.00016H1.33333V4.3335ZM7.33333 13.0002V11.9002C7.33333 11.8113 7.35 11.7252 7.38333 11.6418C7.41667 11.5585 7.46667 11.4835 7.53333 11.4168L11.0167 7.95016C11.1167 7.85016 11.2278 7.77794 11.35 7.7335C11.4722 7.68905 11.5944 7.66683 11.7167 7.66683C11.85 7.66683 11.9778 7.69183 12.1 7.74183C12.2222 7.79183 12.3333 7.86683 12.4333 7.96683L13.05 8.5835C13.1389 8.6835 13.2083 8.79461 13.2583 8.91683C13.3083 9.03905 13.3333 9.16127 13.3333 9.2835C13.3333 9.40572 13.3111 9.53072 13.2667 9.6585C13.2222 9.78627 13.15 9.90016 13.05 10.0002L9.58333 13.4668C9.51667 13.5335 9.44167 13.5835 9.35833 13.6168C9.275 13.6502 9.18889 13.6668 9.1 13.6668H8C7.81111 13.6668 7.65278 13.6029 7.525 13.4752C7.39722 13.3474 7.33333 13.1891 7.33333 13.0002ZM8.33333 12.6668H8.96667L10.9833 10.6335L10.6833 10.3168L10.3667 10.0168L8.33333 12.0335V12.6668ZM10.6833 10.3168L10.3667 10.0168L10.9833 10.6335L10.6833 10.3168Z" fill="black"/>
</svg>
