<svg width="12" height="14" viewBox="0 0 12 14" fill="none" xmlns="http://www.w3.org/2000/svg">
<path id="gpp_maybe" d="M5.99648 9.39977C6.16549 9.39977 6.30833 9.34261 6.425 9.22829C6.54167 9.11396 6.6 8.97229 6.6 8.80329C6.6 8.63428 6.54284 8.49144 6.42852 8.37477C6.31418 8.25811 6.17252 8.19977 6.00352 8.19977C5.8345 8.19977 5.69167 8.25693 5.575 8.37125C5.45833 8.48559 5.4 8.62725 5.4 8.79626C5.4 8.96527 5.45716 9.10811 5.57148 9.22477C5.68582 9.34144 5.82748 9.39977 5.99648 9.39977ZM5.99648 6.99977C6.16549 6.99977 6.30833 6.94227 6.425 6.82727C6.54167 6.71227 6.6 6.56977 6.6 6.39977V4.39977C6.6 4.22977 6.54284 4.08727 6.42852 3.97227C6.31418 3.85727 6.17252 3.79977 6.00352 3.79977C5.8345 3.79977 5.69167 3.85727 5.575 3.97227C5.45833 4.08727 5.4 4.22977 5.4 4.39977V6.39977C5.4 6.56977 5.45716 6.71227 5.57148 6.82727C5.68582 6.94227 5.82748 6.99977 5.99648 6.99977ZM6 13.3331C5.93333 13.3331 5.86667 13.3303 5.8 13.3248C5.73333 13.3192 5.67222 13.3053 5.61667 13.2831C4.16111 12.8053 2.99444 11.922 2.11667 10.6331C1.23889 9.34422 0.799999 7.93866 0.799999 6.41644V3.41644C0.799999 3.16431 0.869444 2.93738 1.00833 2.73567C1.14722 2.53396 1.33333 2.38866 1.56667 2.29977L5.56667 0.766439C5.71111 0.710883 5.85555 0.683105 6 0.683105C6.14444 0.683105 6.28889 0.710883 6.43333 0.766439L10.4333 2.29977C10.6667 2.38866 10.8528 2.53396 10.9917 2.73567C11.1306 2.93738 11.2 3.16431 11.2 3.41644V6.41644C11.2 7.93866 10.7611 9.34422 9.88333 10.6331C9.00555 11.922 7.83889 12.8053 6.38333 13.2831C6.32778 13.3053 6.26667 13.3192 6.2 13.3248C6.13333 13.3303 6.06667 13.3331 6 13.3331ZM6 12.1498C7.15555 11.7914 8.11111 11.0748 8.86667 9.99977C9.62222 8.92477 10 7.73033 10 6.41644V3.41644L6 1.88311L2 3.41644V6.41644C2 7.73033 2.37778 8.92477 3.13333 9.99977C3.88889 11.0748 4.84444 11.7914 6 12.1498Z" fill="black"/>
</svg>
