<svg width="46" height="37" viewBox="0 0 46 37" fill="none" xmlns="http://www.w3.org/2000/svg">
<path id="Vector" d="M35.5515 18.8363L36.5221 15.707C36.8671 14.5961 37.9839 13.8284 39.2566 13.8284H42.1957C44.1096 13.8284 45.4758 15.5124 44.9067 17.1717L38.9038 34.672C38.5335 35.7493 37.4362 36.4834 36.1927 36.4834H31.6613C30.4178 36.4834 29.3186 35.7493 28.9502 34.672L24.908 22.873C24.0816 20.4584 20.3162 20.4566 19.4859 22.8695L18.1157 26.8497C17.7454 27.9252 16.6481 28.6575 15.4047 28.6575H10.8693C9.62586 28.6575 8.52857 27.9234 8.15826 26.8461L0.130315 3.44636C-0.438794 1.78707 0.927458 0.103027 2.84138 0.103027H5.97538C7.24808 0.103027 8.36486 0.870755 8.70983 1.98166L11.4599 10.8565C12.2356 13.3631 16.1511 13.3631 16.9268 10.8565L17.8487 7.87936C18.1937 6.76846 19.3105 6.00073 20.5832 6.00073H23.8361C25.099 6.00073 26.2099 6.75784 26.5627 7.85813L30.0924 18.8593C30.8895 21.3464 34.7797 21.3305 35.5515 18.8363Z" fill="#5230FF"/>
</svg>
